{"title":"Fugly (2014) Hindi 720p DVDRip ESub 1GB [SReeJoN]","uid":11618479,"size":1049493716,"categoryP":"video","categoryS":"hd___movies","magnet":"?xt=urn:btih:3a80f7bc693b2e6b70ab8bd4bf1a829340374ebc&amp;dn=Fugly+%282014%29+Hindi+720p+DVDRip+ESub+1GB+%5BSReeJoN%5D&amp;tr=udp%3A%2F%2Ftracker.openbittorrent.com%3A80&amp;tr=udp%3A%2F%2Fopen.demonii.com%3A1337&amp;tr=udp%3A%2F%2Ftracker.coppersurfer.tk%3A6969&amp;tr=udp%3A%2F%2Fexodus.desync.com%3A6969","seeders":0,"leechers":0,"uploader":"siretgr","files":-1,"time":1417519730,"description":"\n\n[center]\n\n &lt;a href=&quot;\nhttp://www.imdb.com/title/tt3683702/&quot; rel=&quot;nofollow&quot; target=&quot;_NEW&quot;&gt;\nhttp://www.imdb.com/title/tt3683702/&lt;/a&gt;\n\n\n Genre: Action | Comedy | Drama\nSize: 1GB\n \nLanguage: HINDI 2ch\nQUALITY : 720p DVDRip        (THANKS DDR)\n \nDirected by: Kabir Sadanand\nStarring: Jimmy Shergill, Mohit Marwah, Kiara Advan,i Vijender Singh, Arfi Lamba\nMovie Name : Fugly 2014 Hindi 720p DVDRip 1GB ESub\n\n\nMedia Info\n\nGeneral\nUnique ID                        : 192677141068255804594686117751353181783 (0x90F4447EB22DF627AF278B177F070657)\nComplete name                    : E:Fugly (2014) Hindi 720p DVDRip ESub 1GB [SReeJoN]Fugly (2014) Hindi 720p DVDRip ESub 1GB [SReeJoN].mkv\nFormat                           : Matroska\nFile size                        : 1 001 MiB\nDuration                         : 2h 16mn\nOverall bit rate                 : 1 022 Kbps\nEncoded date                     : UTC 2014-11-30 07:08:19\nWriting application              : mkvmerge v6.1.0 ('Old Devil') built on Mar  2 2013 14:32:37\nWriting library                  : libebml v1.3.0 + libmatroska v1.4.0\n\nVideo\nID                               : 1\nFormat                           : AVC\nFormat/Info                      : Advanced Video Codec\nFormat profile                   : &lt;a class=&quot;__cf_email__&quot; href=&quot;/cdn-cgi/l/email-protection&quot; data-cfemail=&quot;b5f8d4dcdbf5f9819b85&quot;&gt;[email&amp;#160;protected]&lt;/a&gt;&lt;script cf-hash='f9e31' type=&quot;text/javascript&quot;&gt;\n/* &lt;![CDATA[ */!function(){try{var t=&quot;currentScript&quot;in document?document.currentScript:function(){for(var t=document.getElementsByTagName(&quot;script&quot;),e=t.length;e--;)if(t[e].getAttribute(&quot;cf-hash&quot;))return t[e]}();if(t&amp;&amp;t.previousSibling){var e,r,n,i,c=t.previousSibling,a=c.getAttribute(&quot;data-cfemail&quot;);if(a){for(e=&quot;&quot;,r=parseInt(a.substr(0,2),16),n=2;a.length-n;n+=2)i=parseInt(a.substr(n,2),16)^r,e+=String.fromCharCode(i);e=document.createTextNode(e),c.parentNode.replaceChild(e,c)}}}catch(u){}}();/* ]]&gt; */&lt;/script&gt;\nFormat settings, CABAC           : Yes\nFormat settings, ReFrames        : 4 frames\nFormat settings, GOP             : M=4, N=9\nCodec ID                         : V_MPEG4/ISO/AVC\nDuration                         : 2h 16mn\nBit rate                         : 890 Kbps\nWidth                            : 1 280 pixels\nHeight                           : 544 pixels\nDisplay aspect ratio             : 2.35:1\nFrame rate mode                  : Variable\nFrame rate                       : 23.976 fps\nColor space                      : YUV\nChroma subsampling               : 4:2:0\nBit depth                        : 8 bits\nScan type                        : Progressive\nBits/(Pixel*Frame)               : 0.053\nStream size                      : 856 MiB (85%)\nTitle                            : V!S!T &amp; SupPort -::--::-Fugly (2014)  720p Dvdrip\nWriting library                  : x264 core 130 r2273 b3065e6\nEncoding settings                : cabac=1 / ref=1 / deblock=1:0:0 / analyse=0x1:0x111 / me=hex / subme=2 / psy=1 / psy_rd=1.00:0.00 / mixed_ref=0 / me_range=16 / chroma_me=1 / trellis=0 / 8x8dct=0 / cqm=0 / deadzone=21,11 / \n\nfast_pskip=1 / chroma_qp_offset=0 / threads=18 / lookahead_threads=4 / sliced_threads=0 / nr=0 / decimate=1 / interlaced=0 / bluray_compat=0 / constrained_intra=0 / bframes=3 / b_pyramid=2 / b_adapt=1 / b_bias=0 / direct=1 / \n\nweightb=1 / open_gop=0 / weightp=1 / keyint=240 / keyint_min=24 / scenecut=40 / intra_refresh=0 / rc_lookahead=10 / rc=2pass / mbtree=1 / bitrate=890 / ratetol=1.0 / qcomp=0.60 / qpmin=0 / qpmax=69 / qpstep=4 / \n\ncplxblur=20.0 / qblur=0.5 / vbv_maxrate=20000 / vbv_bufsize=25000 / nal_hrd=none / ip_ratio=1.40 / aq=1:1.00\nLanguage                         : English\nColor primaries                  : BT.709-5, BT.1361, IEC 61966-2-4, SMPTE RP177\nTransfer characteristics         : BT.709-5, BT.1361\nMatrix coefficients              : BT.709-5, BT.1361, IEC 61966-2-4 709, SMPTE RP177\n\nAudio\nID                               : 2\nFormat                           : AC-3\nFormat/Info                      : Audio Coding 3\nFormat profile                   : Dolby Digital\nMode extension                   : CM (complete main)\nCodec ID                         : A_AC3\nDuration                         : 2h 16mn\nBit rate mode                    : Constant\nBit rate                         : 128 Kbps\nChannel(s)                       : 2 channels\nChannel positions                : Front: L R\nSampling rate                    : 48.0 KHz\nBit depth                        : 16 bits\nCompression mode                 : Lossy\nStream size                      : 125 MiB (13%)\nLanguage                         : Hindi\n\nText\nID                               : 3\nFormat                           : VobSub\nMuxing mode                      : zlib\nCodec ID                         : S_VOBSUB\nCodec ID/Info                    : The same subtitle format used on DVDs\nLanguage                         : English\n\nMenu\n00:00:00.000                     : en:Chapter 1\n00:03:38.885                     : en:Chapter 2\n00:05:26.910                     : en:Chapter 3\n00:11:08.960                     : en:Chapter 4\n00:14:05.803                     : en:Chapter 5\n00:19:53.818                     : en:Chapter 6\n00:23:44.131                     : en:Chapter 7\n00:29:35.315                     : en:Chapter 8\n00:39:41.838                     : en:Chapter 9\n00:40:41.439                     : en:Chapter 10\n00:49:58.871                     : en:Chapter 11\n01:02:30.580                     : en:Chapter 12\n01:08:40.992                     : en:Chapter 13\n01:11:22.778                     : en:Chapter 14\n01:21:25.214                     : en:Chapter 15\n01:42:11.834                     : en:Chapter 16\n01:44:09.034                     : en:Chapter 17\n01:48:01.099                     : en:Chapter 18\n01:53:43.858                     : en:Chapter 19\n01:57:09.814                     : en:Chapter 20\n02:01:53.431                     : en:Chapter 21\n\n[/center]","torrent":{"xt":"urn:btih:3a80f7bc693b2e6b70ab8bd4bf1a829340374ebc","amp;dn":"Fugly+%282014%29+Hindi+720p+DVDRip+ESub+1GB+%5BSReeJoN%5D","amp;tr":["udp%3A%2F%2Ftracker.openbittorrent.com%3A80","udp%3A%2F%2Fopen.demonii.com%3A1337","udp%3A%2F%2Ftracker.coppersurfer.tk%3A6969","udp%3A%2F%2Fexodus.desync.com%3A6969"],"infoHash":"3a80f7bc693b2e6b70ab8bd4bf1a829340374ebc","infoHashBuffer":{"type":"Buffer","data":[58,128,247,188,105,59,46,107,112,171,139,212,191,26,130,147,64,55,78,188]},"announce":[],"urlList":[]}}